# xmcd CD database file generated by OrangeCD 5.2
#
# Track frame offsets:
#	150
#	13985
#	26157
#	38245
#	49338
#	73923
#	94200
#	108271
#	126479
#	138424
#	161538
#	177199
#	195072
#	207896
#	220944
#	232125
#	245449
#	263728
#	280602
#	295321
#	321938
#	337204
#
# Disc length: 4657 seconds
#
# Revision: 1
# Processed by: cddbd v1.5.2PL0 Copyright (c) Steve Scherf et al.
# Submitted via: OrangeCD 5.2
#
DISCID=58122f16
DTITLE=Various Artist - Try To Remember   Volume 7
DYEAR=2006
DGENRE=Dance Try To Remember
TTITLE0=Young Holt Unlimited - Soulful Strut
TTITLE1=Wilson Pickett - In The Midnight Hour
TTITLE2=The Temptations - The Way You Do The Things You Do
TTITLE3=The Showman - It Will Stand
TTITLE4=The Pointer Sisters - I Need You
TTITLE5=The Isley Brothers - Shout   Parts 1 and 2
TTITLE6=The Honeydrippers - Sea Of Love
TTITLE7=Stevie Wonder - Superstition
TTITLE8=Sam and Dave - Soul Man
TTITLE9=Ray Charles - What'd I Say
TTITLE10=Simply Red - If You Don't Know Me By Now
TTITLE11=Patti LaBelle - Lady Marmalade
TTITLE12=Otis Redding - I Can't Turn You Loose
TTITLE13=Mary Wells - My Guy
TTITLE14=Martha Reeves and The Vandellas - Come And Get These Memories
TTITLE15=Martha Reevees and The Vandellas - Tears On My Pillow
TTITLE16=Diana Ross - Upside Down
TTITLE17=Billy Ocean - Caribbean Queen
TTITLE18=Aretha Franklin - Rock Steady
TTITLE19=Aretha Franklin - Freeway Of Love
TTITLE20=Grand Funk Railroad - Some Kind Of Wonderful
TTITLE21=Bonnie Pointer - Heaven Must Of Sent You
EXTD=
EXTT0=
EXTT1=
EXTT2=
EXTT3=
EXTT4=
EXTT5=
EXTT6=
EXTT7=
EXTT8=
EXTT9=
EXTT10=
EXTT11=
EXTT12=
EXTT13=
EXTT14=
EXTT15=
EXTT16=
EXTT17=
EXTT18=
EXTT19=
EXTT20=
EXTT21=
PLAYORDER=
